# Blender v2.80 (sub 75) OBJ File: 'five_story_box.blend'
# www.blender.org
mtllib five_story_box.mtl
o Cube
v -6.280643 -0.007342 5.748862
v -6.280643 3.980342 5.748862
v -6.280643 -0.007342 -5.985529
v -6.280643 3.980342 -5.985529
v 5.836416 -0.007342 5.748862
v 5.836416 3.980342 5.748862
v 5.836416 -0.007342 -5.985529
v 5.836416 3.980342 -5.985529
v -6.280643 3.909191 5.748862
v -6.280643 7.896875 5.748862
v -6.280643 3.909191 -5.985529
v -6.280643 7.896875 -5.985529
v 5.836416 3.909191 5.748862
v 5.836416 7.896875 5.748862
v 5.836416 3.909191 -5.985529
v 5.836416 7.896875 -5.985529
v -6.280643 7.851090 5.748862
v -6.280643 11.838775 5.748862
v -6.280643 7.851090 -5.985529
v -6.280643 11.838775 -5.985529
v 5.836416 7.851090 5.748862
v 5.836416 11.838775 5.748862
v 5.836416 7.851090 -5.985529
v 5.836416 11.838775 -5.985529
v -6.299329 11.772310 5.782310
v -6.299329 15.759994 5.782310
v -6.299329 11.772310 -5.952081
v -6.299329 15.759994 -5.952081
v 5.817729 11.772310 5.782310
v 5.817729 15.759994 5.782310
v 5.817729 11.772310 -5.952081
v 5.817729 15.759994 -5.952081
v -6.299329 15.742674 5.782310
v -6.299329 19.730356 5.782310
v -6.299329 15.742674 -5.952081
v -6.299329 19.730356 -5.952081
v 5.817729 15.742674 5.782310
v 5.817729 19.730356 5.782310
v 5.817729 15.742674 -5.952081
v 5.817729 19.730356 -5.952081
v -1.087349 -0.077361 -5.911216
v -1.087349 2.697957 -5.911216
v -1.087349 -0.077361 -6.911216
v -1.087349 2.697957 -6.911216
v 1.049559 -0.077361 -5.911216
v 1.049559 2.697957 -5.911216
v 1.049559 -0.077361 -6.911216
v 1.049559 2.697957 -6.911216
v -0.904377 2.301713 -6.851730
v -0.904377 0.001665 -6.851730
v 0.866587 0.001665 -6.851730
v 0.866587 2.301713 -6.851730
v -0.904377 2.301713 -6.039421
v -0.904377 0.001665 -6.039421
v 0.866587 0.001665 -6.039421
v 0.866587 2.301713 -6.039421
vt 0.405000 0.202290
vt 0.405000 0.000140
vt 0.999860 0.000140
vt 0.999860 0.202290
vt 0.202290 0.614398
vt 0.000140 0.614398
vt 0.000140 0.000140
vt 0.202290 0.000140
vt 0.202570 0.000140
vt 0.404721 0.000140
vt 0.404721 0.595000
vt 0.202570 0.595000
vt 0.000140 0.816829
vt 0.000140 0.614678
vt 0.614398 0.614678
vt 0.614398 0.816829
vt 0.405000 0.202290
vt 0.405000 0.000140
vt 0.999860 0.000140
vt 0.999860 0.202290
vt 0.202290 0.614398
vt 0.000140 0.614398
vt 0.000140 0.000140
vt 0.202290 0.000140
vt 0.202570 0.000140
vt 0.404721 0.000140
vt 0.404721 0.595000
vt 0.202570 0.595000
vt 0.000140 0.816829
vt 0.000140 0.614678
vt 0.614398 0.614678
vt 0.614398 0.816829
vt 0.405000 0.202290
vt 0.405000 0.000140
vt 0.999860 0.000140
vt 0.999860 0.202290
vt 0.202290 0.614398
vt 0.000140 0.614398
vt 0.000140 0.000140
vt 0.202290 0.000140
vt 0.202570 0.000140
vt 0.404721 0.000140
vt 0.404721 0.595000
vt 0.202570 0.595000
vt 0.000140 0.816829
vt 0.000140 0.614678
vt 0.614398 0.614678
vt 0.614398 0.816829
vt 0.405000 0.202290
vt 0.405000 0.000140
vt 0.999860 0.000140
vt 0.999860 0.202290
vt 0.202290 0.614398
vt 0.000140 0.614398
vt 0.000140 0.000140
vt 0.202290 0.000140
vt 0.202570 0.000140
vt 0.404721 0.000140
vt 0.404721 0.595000
vt 0.202570 0.595000
vt 0.000140 0.816829
vt 0.000140 0.614678
vt 0.614398 0.614678
vt 0.614398 0.816829
vt 0.405000 0.202290
vt 0.405000 0.000140
vt 0.999860 0.000140
vt 0.999860 0.202290
vt 0.202290 0.614398
vt 0.000140 0.614398
vt 0.000140 0.000140
vt 0.202290 0.000140
vt 0.202570 0.000140
vt 0.404721 0.000140
vt 0.404721 0.595000
vt 0.202570 0.595000
vt 0.000140 0.816829
vt 0.000140 0.614678
vt 0.614398 0.614678
vt 0.614398 0.816829
vt 0.984526 0.695786
vt 0.984526 0.983577
vt 0.687349 0.983577
vt 0.687349 0.695786
vt 0.843925 0.501938
vt 0.843925 0.630324
vt 0.797665 0.630324
vt 0.797665 0.501938
vt 0.973237 0.523924
vt 0.973237 0.652311
vt 0.964336 0.633980
vt 0.964336 0.527580
vt 0.926022 0.395365
vt 0.926022 0.523751
vt 0.879762 0.523751
vt 0.879762 0.395365
vt 0.797492 0.395365
vt 0.797492 0.523751
vt 0.698638 0.523751
vt 0.698638 0.395365
vt 0.698638 0.622777
vt 0.698638 0.523924
vt 0.744898 0.523924
vt 0.744898 0.622777
vt 0.745071 0.622777
vt 0.745071 0.523924
vt 0.791331 0.523924
vt 0.791331 0.622777
vt 0.963773 0.395365
vt 0.963773 0.477289
vt 0.926195 0.477289
vt 0.926195 0.395365
vt 0.964163 0.523924
vt 0.964163 0.652310
vt 0.955263 0.648655
vt 0.955263 0.542254
vt 0.867382 0.501938
vt 0.867382 0.600791
vt 0.862806 0.592327
vt 0.862806 0.510402
vt 0.862633 0.501938
vt 0.862633 0.600791
vt 0.844097 0.592327
vt 0.844097 0.510402
vt 0.879589 0.395365
vt 0.879589 0.501765
vt 0.797665 0.501765
vt 0.797665 0.395365
vt 0.904065 0.668074
vt 0.797665 0.668074
vt 0.797665 0.630497
vt 0.904065 0.630497
vt 0.917340 0.523924
vt 0.917340 0.630324
vt 0.879762 0.630324
vt 0.879762 0.523924
vt 0.917513 0.605849
vt 0.917513 0.523924
vt 0.955090 0.523924
vt 0.955090 0.605849
vn -1.0000 0.0000 0.0000
vn 0.0000 0.0000 -1.0000
vn 1.0000 0.0000 0.0000
vn 0.0000 0.0000 1.0000
vn 0.0000 1.0000 0.0000
vn 0.3092 0.0000 -0.9510
vn 0.0000 -1.0000 0.0000
vn -0.3092 0.0000 -0.9510
vn 0.0000 0.6014 -0.7990
vn 0.0000 -0.1485 -0.9889
usemtl None
s off
f 1/1/1 2/2/1 4/3/1 3/4/1
f 3/5/2 4/6/2 8/7/2 7/8/2
f 7/9/3 8/10/3 6/11/3 5/12/3
f 5/13/4 6/14/4 2/15/4 1/16/4
f 9/17/1 10/18/1 12/19/1 11/20/1
f 11/21/2 12/22/2 16/23/2 15/24/2
f 15/25/3 16/26/3 14/27/3 13/28/3
f 13/29/4 14/30/4 10/31/4 9/32/4
f 17/33/1 18/34/1 20/35/1 19/36/1
f 19/37/2 20/38/2 24/39/2 23/40/2
f 23/41/3 24/42/3 22/43/3 21/44/3
f 21/45/4 22/46/4 18/47/4 17/48/4
f 25/49/1 26/50/1 28/51/1 27/52/1
f 27/53/2 28/54/2 32/55/2 31/56/2
f 31/57/3 32/58/3 30/59/3 29/60/3
f 29/61/4 30/62/4 26/63/4 25/64/4
f 33/65/1 34/66/1 36/67/1 35/68/1
f 35/69/2 36/70/2 40/71/2 39/72/2
f 39/73/3 40/74/3 38/75/3 37/76/3
f 37/77/4 38/78/4 34/79/4 33/80/4
f 36/81/5 34/82/5 38/83/5 40/84/5
f 41/85/1 42/86/1 44/87/1 43/88/1
f 43/89/6 44/90/6 49/91/6 50/92/6
f 47/93/3 48/94/3 46/95/3 45/96/3
f 45/97/4 46/98/4 42/99/4 41/100/4
f 43/101/7 47/102/7 45/103/7 41/104/7
f 48/105/5 44/106/5 42/107/5 46/108/5
f 49/109/7 52/110/7 56/111/7 53/112/7
f 48/113/8 47/114/8 51/115/8 52/116/8
f 47/117/9 43/118/9 50/119/9 51/120/9
f 44/121/10 48/122/10 52/123/10 49/124/10
f 54/125/2 53/126/2 56/127/2 55/128/2
f 50/129/3 49/130/3 53/131/3 54/132/3
f 52/133/1 51/134/1 55/135/1 56/136/1
f 51/137/5 50/138/5 54/139/5 55/140/5
