# Blender v2.80 (sub 75) OBJ File: 'dropship.blend'
# www.blender.org
mtllib dropship.mtl
o Cube_Cube.001
v -4.424230 2.295641 1.000000
v -4.424230 4.916286 1.000000
v 10.014094 2.361117 1.000000
v 6.819528 4.916286 1.000000
v -7.666279 1.065925 5.212395
v -7.666279 3.065925 5.212395
v -10.139930 1.065925 5.212395
v -10.139930 3.065925 5.212395
v -6.687301 -2.889722 1.000000
v 10.061578 -2.889722 1.000000
v -4.938105 0.868569 3.593941
v 8.312382 0.868569 3.593941
v -4.938105 -2.692366 3.593941
v 8.312382 -2.692366 3.593941
v 12.228139 1.065925 1.000000
v 12.228139 3.065925 1.000000
v -9.221881 1.339951 4.349618
v -9.221881 2.976265 4.349618
v -4.938105 -3.227237 2.175922
v 8.312382 -3.227237 2.175922
v -0.628354 3.079994 2.294541
v -0.628354 4.151287 2.294541
v 3.967982 4.151287 2.294541
v 5.273889 3.106760 2.294541
v 8.747725 3.780171 1.723417
v 10.183843 2.631496 1.723417
v 11.179165 2.948342 1.723417
v 11.179165 2.544124 1.723417
v 8.747725 3.780171 4.075608
v 10.183843 2.631496 4.075608
v 11.179165 2.948342 4.075608
v 11.179165 2.544124 4.075608
v -4.424230 2.295641 -1.000000
v -4.424230 4.916286 -1.000000
v -6.687301 1.065925 0.000000
v -6.687301 4.788615 0.000000
v 10.014094 2.361117 -1.000000
v 6.819528 4.916286 -1.000000
v 10.061578 1.922932 0.000000
v 10.061578 4.788615 0.000000
v -10.139930 1.065925 0.000000
v -10.139930 1.065925 0.000000
v -10.139930 3.065925 0.000000
v -10.139930 3.065925 0.000000
v -7.666279 1.065925 -5.212395
v -7.666279 3.065925 -5.212395
v -10.139930 1.065925 -5.212395
v -10.139930 3.065925 -5.212395
v -6.687301 -2.889722 0.000000
v -6.687301 -2.889722 -1.000000
v 10.061578 -2.889722 0.000000
v 10.061578 -2.889722 -1.000000
v -4.938105 0.868569 -3.593941
v 8.312382 0.868569 -3.593941
v -4.938105 -2.692366 -3.593941
v 8.312382 -2.692366 -3.593941
v 12.228139 3.065925 0.000000
v 12.228139 1.065925 0.000000
v 12.228139 1.065925 -1.000000
v 12.228139 3.065925 -1.000000
v -9.221881 1.339951 0.000000
v -9.221881 2.976265 0.000000
v -9.221881 1.339951 -4.349618
v -9.221881 2.976265 -4.349618
v -4.938105 0.868569 0.000000
v 8.312382 0.868569 0.000000
v -4.938105 -2.692366 0.000000
v 8.312382 -2.692366 0.000000
v -6.670720 -3.424593 0.000000
v 10.061578 -3.424593 0.000000
v -4.938105 -3.227237 -2.175922
v 8.312382 -3.227237 -2.175922
v -0.628354 3.079994 -2.294541
v -0.628354 4.151287 -2.294541
v 3.967982 4.151287 -2.294541
v 5.273889 3.106760 -2.294541
v 8.747725 3.780171 -1.723417
v 10.183843 2.631496 -1.723417
v 11.179165 2.948342 -1.723417
v 11.179165 2.544124 -1.723417
v 8.747725 3.780171 -4.075608
v 10.183843 2.631496 -4.075608
v 11.179165 2.948342 -4.075608
v 11.179165 2.544124 -4.075608
vt 0.125000 0.750000
vt 0.125000 0.750000
vt 0.125000 0.750000
vt 0.125000 0.750000
vt 0.375000 0.750000
vt 0.375000 0.750000
vt 0.375000 0.750000
vt 0.375000 0.750000
vt 0.625000 0.750000
vt 0.875000 0.750000
vt 0.875000 0.750000
vt 0.625000 0.750000
vt 0.125000 0.750000
vt 0.375000 0.750000
vt 0.375000 0.750000
vt 0.125000 0.750000
vt 0.625000 0.500000
vt 0.875000 0.500000
vt 0.125000 0.750000
vt 0.125000 0.500000
vt 0.375000 1.000000
vt 0.625000 1.000000
vt 0.625000 1.000000
vt 0.375000 1.000000
vt 0.875000 0.500000
vt 0.875000 0.750000
vt 0.125000 0.500000
vt 0.125000 0.750000
vt 0.125000 0.750000
vt 0.125000 0.500000
vt 0.625000 1.000000
vt 0.375000 1.000000
vt 0.125000 0.750000
vt 0.125000 0.750000
vt 0.125000 0.750000
vt 0.125000 0.750000
vt 0.875000 0.750000
vt 0.875000 0.750000
vt 0.375000 0.500000
vt 0.375000 0.750000
vt 0.375000 0.500000
vt 0.375000 0.750000
vt 0.375000 0.750000
vt 0.375000 0.750000
vt 0.375000 1.000000
vt 0.375000 0.500000
vt 0.625000 0.500000
vt 0.625000 0.750000
vt 0.625000 0.000000
vt 0.375000 0.000000
vt 0.375000 0.000000
vt 0.625000 0.000000
vt 0.375000 1.000000
vt 0.375000 0.750000
vt 0.875000 0.750000
vt 0.875000 0.750000
vt 0.625000 1.000000
vt 0.375000 1.000000
vt 0.375000 0.750000
vt 0.625000 1.000000
vt 0.375000 1.000000
vt 0.375000 0.750000
vt 0.375000 0.750000
vt 0.625000 0.750000
vt 0.625000 0.750000
vt 0.625000 0.750000
vt 0.625000 0.750000
vt 0.125000 0.750000
vt 0.125000 0.750000
vt 0.375000 0.250000
vt 0.625000 0.250000
vt 0.375000 0.750000
vt 0.375000 0.750000
vt 0.375000 0.750000
vt 0.375000 0.750000
vt 0.625000 0.750000
vt 0.625000 0.750000
vt 0.875000 0.750000
vt 0.875000 0.750000
vt 0.125000 0.750000
vt 0.375000 0.750000
vt 0.125000 0.750000
vt 0.375000 1.000000
vt 0.375000 1.000000
vt 0.625000 1.000000
vt 0.625000 1.000000
vt 0.125000 0.750000
vt 0.375000 1.000000
vt 0.625000 1.000000
vt 0.125000 0.750000
vt 0.125000 0.750000
vt 0.125000 0.750000
vt 0.875000 0.750000
vt 0.875000 0.750000
vt 0.375000 0.750000
vt 0.375000 0.750000
vt 0.375000 0.750000
vt 0.375000 1.000000
vt 0.625000 0.750000
vt 0.625000 0.000000
vt 0.375000 0.000000
vt 0.875000 0.750000
vt 0.375000 1.000000
vt 0.625000 1.000000
vt 0.375000 0.750000
vt 0.375000 1.000000
vt 0.625000 1.000000
vt 0.375000 0.750000
vt 0.375000 0.750000
vt 0.625000 0.750000
vt 0.625000 0.750000
vt 0.625000 0.750000
vt 0.625000 0.750000
vn 1.0000 0.0000 0.0000
vn -0.2986 -0.6931 0.6562
vn 0.0000 0.8609 0.5088
vn 0.0000 -0.9959 0.0903
vn 0.0000 0.9919 -0.1266
vn -0.9995 -0.0310 0.0000
vn 0.7925 0.0000 0.6099
vn -0.3325 0.6664 0.6674
vn 0.0000 -0.6309 0.7758
vn 0.0000 0.0000 1.0000
vn 0.1570 -0.9848 -0.0745
vn -0.2860 0.9582 0.0000
vn -0.2318 0.9665 0.1100
vn -0.7035 0.1742 0.6890
vn 0.9997 0.0047 0.0227
vn 0.8321 0.0045 0.5546
vn 0.0000 1.0000 0.0000
vn 0.0000 -0.9357 0.3529
vn -0.9298 0.2406 0.2784
vn -0.0021 0.8718 0.4898
vn -0.4335 -0.8824 0.1830
vn 0.3603 0.7639 0.5353
vn -1.0000 0.0000 0.0000
vn 0.0000 -1.0000 0.0000
vn -0.0972 -0.9953 0.0000
vn -0.6848 0.0000 -0.7287
vn -0.4080 -0.8359 0.3670
vn 0.4092 -0.8344 0.3692
vn 0.2986 0.3733 0.8783
vn -0.3228 0.0000 0.9465
vn 0.0039 -0.8603 0.5098
vn -0.0874 -0.9962 0.0000
vn -0.5721 -0.7152 0.4015
vn 0.2747 0.8030 0.5289
vn 0.5677 0.0000 0.8232
vn -0.6246 -0.7809 0.0000
vn 0.3237 0.9462 0.0000
vn -0.2986 -0.6931 -0.6562
vn 0.0000 0.8609 -0.5088
vn 0.0000 -0.9959 -0.0903
vn 0.0000 0.9919 0.1266
vn 0.7925 0.0000 -0.6099
vn -0.3325 0.6664 -0.6674
vn 0.0000 -0.6309 -0.7758
vn 0.0000 0.0000 -1.0000
vn 0.1570 -0.9848 0.0745
vn -0.2318 0.9665 -0.1100
vn -0.7035 0.1742 -0.6890
vn 0.9997 0.0047 -0.0227
vn 0.8321 0.0045 -0.5546
vn 0.0000 -0.9357 -0.3529
vn -0.9298 0.2406 -0.2784
vn -0.0021 0.8718 -0.4898
vn -0.4335 -0.8824 -0.1830
vn 0.3603 0.7639 -0.5353
vn -0.6848 0.0000 0.7287
vn -0.4080 -0.8359 -0.3670
vn 0.4092 -0.8344 -0.3692
vn 0.2986 0.3733 -0.8783
vn -0.3228 0.0000 -0.9465
vn 0.0039 -0.8603 -0.5098
vn -0.5721 -0.7152 -0.4015
vn 0.2747 0.8030 -0.5289
vn 0.5677 0.0000 -0.8232
usemtl None
s off
f 11/1/1 13/2/1 67/3/1 65/4/1
f 3/5/2 15/6/2 28/7/2 26/8/2
f 4/9/3 2/10/3 22/11/3 23/12/3
f 69/13/4 70/14/4 20/15/4 19/16/4
f 40/17/5 36/18/5 2/10/5 4/9/5
f 9/19/6 49/20/6 69/13/6
f 1/21/7 2/22/7 6/23/7 5/24/7
f 2/10/8 36/18/8 44/25/8 43/26/8
f 35/27/9 1/28/9 42/29/9 41/30/9
f 5/24/10 6/23/10 8/31/10 7/32/10
f 42/29/11 1/28/11 5/33/11 7/34/11
f 42/29/12 7/34/12 17/35/12 61/36/12
f 2/10/13 43/26/13 8/37/13 6/38/13
f 51/39/1 10/40/1 70/14/1
f 1/28/14 35/27/14 49/20/14 9/19/14
f 39/41/15 3/5/15 10/40/15 51/39/15
f 10/40/16 3/5/16 12/42/16 14/43/16
f 13/2/17 14/43/17 68/44/17 67/3/17
f 14/43/18 13/2/18 19/16/18 20/15/18
f 1/28/19 9/19/19 13/2/19 11/1/19
f 3/5/20 1/21/20 11/45/20 12/42/20
f 58/46/1 57/47/1 16/48/1 15/6/1
f 3/5/21 39/41/21 58/46/21 15/6/21
f 40/17/22 4/9/22 16/48/22 57/47/22
f 62/49/23 61/50/23 17/51/23 18/52/23
f 12/42/24 11/45/24 65/53/24 66/54/24
f 8/37/25 43/26/25 62/55/25 18/56/25
f 7/32/26 8/31/26 18/57/26 17/58/26
f 14/43/23 12/42/23 66/54/23 68/44/23
f 13/2/27 9/19/27 69/13/27 19/16/27
f 10/40/28 14/43/28 20/15/28 70/14/28
f 24/59/10 23/12/10 22/60/10 21/61/10
f 3/5/29 4/9/29 23/12/29 24/59/29
f 2/22/30 1/21/30 21/61/30 22/60/30
f 1/21/31 3/5/31 24/59/31 21/61/31
f 26/8/32 28/7/32 32/62/32 30/63/32
f 4/9/33 3/5/33 26/8/33 25/64/33
f 16/48/34 4/9/34 25/64/34 27/65/34
f 15/6/35 16/48/35 27/65/35 28/7/35
f 29/66/10 30/63/10 32/62/10 31/67/10
f 25/64/36 26/8/36 30/63/36 29/66/36
f 27/65/37 25/64/37 29/66/37 31/67/37
f 28/7/1 27/65/1 31/67/1 32/62/1
f 53/68/1 65/4/1 67/3/1 55/69/1
f 35/70/10 39/41/10 40/17/10 36/71/10
f 37/72/38 78/73/38 80/74/38 59/75/38
f 38/76/39 75/77/39 74/78/39 34/79/39
f 69/13/40 71/80/40 72/81/40 70/14/40
f 40/17/41 38/76/41 34/79/41 36/18/41
f 50/82/6 69/13/6 49/20/6
f 33/83/42 45/84/42 46/85/42 34/86/42
f 34/79/43 43/26/43 44/25/43 36/18/43
f 35/27/44 41/30/44 42/29/44 33/87/44
f 45/84/45 47/88/45 48/89/45 46/85/45
f 42/29/46 47/90/46 45/91/46 33/87/46
f 42/29/12 61/36/12 63/92/12 47/90/12
f 34/79/47 46/93/47 48/94/47 43/26/47
f 51/39/1 70/14/1 52/95/1
f 33/87/48 50/82/48 49/20/48 35/27/48
f 39/41/49 51/39/49 52/95/49 37/72/49
f 52/95/50 56/96/50 54/97/50 37/72/50
f 55/69/17 67/3/17 68/44/17 56/96/17
f 56/96/51 72/81/51 71/80/51 55/69/51
f 33/87/52 53/68/52 55/69/52 50/82/52
f 37/72/53 54/97/53 53/98/53 33/83/53
f 58/46/1 59/75/1 60/99/1 57/47/1
f 37/72/54 59/75/54 58/46/54 39/41/54
f 40/17/55 57/47/55 60/99/55 38/76/55
f 39/41/10 58/46/10 57/47/10 40/17/10
f 62/49/23 64/100/23 63/101/23 61/50/23
f 54/97/24 66/54/24 65/53/24 53/98/24
f 48/94/25 64/102/25 62/55/25 43/26/25
f 47/88/56 63/103/56 64/104/56 48/89/56
f 56/96/23 68/44/23 66/54/23 54/97/23
f 55/69/57 71/80/57 69/13/57 50/82/57
f 52/95/58 70/14/58 72/81/58 56/96/58
f 76/105/45 73/106/45 74/107/45 75/77/45
f 37/72/59 76/105/59 75/77/59 38/76/59
f 34/86/60 74/107/60 73/106/60 33/83/60
f 33/83/61 73/106/61 76/105/61 37/72/61
f 78/73/32 82/108/32 84/109/32 80/74/32
f 38/76/62 77/110/62 78/73/62 37/72/62
f 60/99/63 79/111/63 77/110/63 38/76/63
f 59/75/64 80/74/64 79/111/64 60/99/64
f 81/112/45 83/113/45 84/109/45 82/108/45
f 77/110/36 81/112/36 82/108/36 78/73/36
f 79/111/37 83/113/37 81/112/37 77/110/37
f 80/74/1 84/109/1 83/113/1 79/111/1
