# Blender v2.80 (sub 75) OBJ File: 'rat_mirror_applied.blend'
# www.blender.org
mtllib rat.mtl
o Cube
v -4.459804 0.598296 -1.234320
v -4.459804 0.184889 -1.234320
v 0.968185 1.558035 -1.234295
v -0.606016 1.565880 -1.234318
v -4.062605 0.078980 -1.735656
v -4.062605 -0.292814 -1.811035
v -0.166500 -0.300660 -1.811009
v -0.166500 0.005183 -1.795261
v -4.459804 0.184889 -1.811035
v 0.968185 2.372702 -1.811035
v 0.968185 2.372702 -2.577716
v -0.606018 2.372702 -2.577714
v -0.606018 2.372702 -1.811033
v -4.459804 0.598296 -1.811035
v -4.459804 0.598296 -2.577714
v -4.459804 0.184890 -2.577714
v 2.542388 2.372702 -2.577714
v 4.126803 0.598296 -2.577714
v 3.947234 0.598296 -2.577714
v 2.537436 2.198084 -2.577714
v -0.166500 0.598296 -2.577714
v -0.166500 0.184890 -2.577714
v -4.286701 0.184890 -2.577714
v -4.280235 0.598296 -2.577714
v -1.791409 0.598296 -2.577714
v -4.062605 -0.292814 -2.577714
v -0.166500 -0.292814 -2.577714
v -0.601067 2.198084 -2.577714
v -0.166500 -0.153802 -2.577714
v -4.020530 -0.164682 -2.577714
v -1.791409 0.598293 -1.884389
v -4.280235 0.598293 -1.884387
v -0.601067 2.198084 -1.884387
v -0.166500 0.184889 -2.232883
v -0.166500 -0.153802 -2.232883
v -4.020530 -0.164682 -2.232883
v -4.286701 0.184889 -2.232883
v 4.126803 0.598296 -1.234320
v 4.126803 0.184889 -1.234320
v 2.542388 1.565880 -1.234318
v 3.729605 0.013029 -1.795287
v 3.729605 -0.292814 -1.811035
v 4.126803 0.184889 -1.811035
v 1.458408 0.598296 -2.577714
v 2.542388 2.372702 -1.811033
v 4.126803 0.598296 -1.811035
v 4.126803 0.184890 -2.577714
v 3.953700 0.184890 -2.577714
v 3.729605 -0.292814 -2.577714
v 3.687530 -0.164682 -2.577714
v 1.458408 0.598293 -1.884389
v 2.537436 2.198084 -1.884387
v 3.947234 0.598293 -1.884387
v 3.953700 0.184889 -2.232883
v 3.687530 -0.164682 -2.232883
v -4.459804 0.598295 1.234320
v -4.459804 0.184889 1.234320
v 0.968185 1.558035 1.234295
v -0.606016 1.565880 1.234318
v -4.062605 0.078980 1.735656
v -4.062605 -0.292814 1.811035
v -0.166500 -0.300660 1.811009
v -0.166500 0.005183 1.795261
v -4.459804 0.184889 1.811035
v 0.968185 2.372702 1.811035
v 0.968185 2.372702 2.577716
v -0.606018 2.372702 2.577714
v -0.606018 2.372702 1.811033
v -4.459804 0.598295 1.811035
v -4.459804 0.598295 2.577714
v -4.459804 0.184889 2.577714
v 2.542388 2.372702 2.577714
v 4.126803 0.598295 2.577714
v 3.947234 0.598295 2.577714
v 2.537436 2.198084 2.577714
v -0.166500 0.598295 2.577714
v -0.166500 0.184889 2.577714
v -4.286701 0.184889 2.577714
v -4.280235 0.598295 2.577714
v -1.791409 0.598295 2.577714
v -4.062605 -0.292814 2.577714
v -0.166500 -0.292814 2.577714
v -0.601067 2.198084 2.577714
v -0.166500 -0.153802 2.577714
v -4.020530 -0.164682 2.577714
v -1.791409 0.598293 1.884389
v -4.280235 0.598293 1.884387
v -0.601067 2.198084 1.884387
v -0.166500 0.184889 2.232883
v -0.166500 -0.153802 2.232883
v -4.020530 -0.164682 2.232883
v -4.286701 0.184889 2.232883
v 4.126803 0.598295 1.234320
v 4.126803 0.184889 1.234320
v 2.542388 1.565880 1.234318
v 3.729605 0.013029 1.795287
v 3.729605 -0.292814 1.811035
v 4.126803 0.184889 1.811035
v 1.458408 0.598295 2.577714
v 2.542388 2.372702 1.811033
v 4.126803 0.598295 1.811035
v 4.126803 0.184889 2.577714
v 3.953700 0.184889 2.577714
v 3.729605 -0.292814 2.577714
v 3.687530 -0.164682 2.577714
v 1.458408 0.598293 1.884389
v 2.537436 2.198084 1.884387
v 3.947234 0.598293 1.884387
v 3.953700 0.184889 2.232883
v 3.687530 -0.164682 2.232883
v -4.459802 0.598295 0.000000
v -4.459802 0.184889 0.000000
v -0.166500 1.558035 0.000000
v -1.740702 1.565880 0.000000
v -0.166500 0.005183 0.000000
v -4.062603 0.078980 0.000000
v 4.126801 0.184889 0.000000
v 4.126801 0.598295 0.000000
v 1.407701 1.565880 0.000000
v 3.729603 0.013029 0.000000
vt 0.648718 0.634658
vt 0.648718 0.604764
vt 0.737974 0.604764
vt 0.737974 0.634658
vt 0.545847 0.125444
vt 0.456592 0.207494
vt 0.456591 0.093660
vt 0.545847 0.011610
vt 0.915300 0.665707
vt 0.942731 0.665785
vt 0.942731 0.947518
vt 0.920586 0.947473
vt 0.395016 0.603887
vt 0.305765 0.604834
vt 0.303551 0.396145
vt 0.395016 0.316564
vt 0.483033 0.883051
vt 0.456591 0.850802
vt 0.475155 0.809893
vt 0.483033 0.836169
vt 0.280331 0.011610
vt 0.280331 0.293394
vt 0.154823 0.293394
vt 0.150513 0.011610
vt 0.011610 0.818889
vt 0.041336 0.782637
vt 0.041336 0.908145
vt 0.011610 0.908145
vt 0.779440 0.458382
vt 0.724000 0.458382
vt 0.724000 0.344549
vt 0.779440 0.344549
vt 0.607015 0.634658
vt 0.551575 0.634658
vt 0.551575 0.604764
vt 0.607015 0.604764
vt 0.647731 0.125444
vt 0.719909 0.125444
vt 0.719910 0.239277
vt 0.648195 0.239277
vt 0.150513 0.341014
vt 0.217949 0.316614
vt 0.217949 0.623407
vt 0.176415 0.627167
vt 0.891005 0.680008
vt 0.891005 0.852027
vt 0.881319 0.843378
vt 0.882328 0.689188
vt 0.432248 0.729051
vt 0.432248 0.758945
vt 0.134309 0.758945
vt 0.134777 0.729051
vt 0.314748 0.729051
vt 0.596500 0.507306
vt 0.596500 0.562746
vt 0.551575 0.562746
vt 0.551575 0.507306
vt 0.456591 0.713318
vt 0.456591 0.657878
vt 0.763384 0.657878
vt 0.763384 0.713318
vt 0.432247 0.650391
vt 0.432247 0.705831
vt 0.150513 0.705831
vt 0.150513 0.650387
vt 0.104458 0.582559
vt 0.104458 0.810225
vt 0.091831 0.809867
vt 0.091831 0.582917
vt 0.104458 0.833912
vt 0.104458 0.846430
vt 0.074564 0.846430
vt 0.074564 0.833445
vt 0.892080 0.655962
vt 0.882061 0.656785
vt 0.858980 0.376005
vt 0.868463 0.378278
vt 0.456591 0.509592
vt 0.528356 0.344549
vt 0.528356 0.634658
vt 0.207665 0.782165
vt 0.257800 0.782165
vt 0.257800 0.926358
vt 0.207664 0.926358
vt 0.793265 0.301720
vt 0.743129 0.301719
vt 0.743130 0.011610
vt 0.793265 0.011610
vt 0.636562 0.736538
vt 0.636562 0.786673
vt 0.456591 0.786673
vt 0.456591 0.736538
vt 0.890261 0.309548
vt 0.865769 0.309548
vt 0.864983 0.030857
vt 0.890261 0.011610
vt 0.647731 0.262497
vt 0.672666 0.262497
vt 0.672666 0.294268
vt 0.647731 0.294268
vt 0.940235 0.642487
vt 0.915300 0.642487
vt 0.915300 0.344549
vt 0.940235 0.344549
vt 0.963455 0.344549
vt 0.988390 0.344549
vt 0.988390 0.623240
vt 0.963455 0.623240
vt 0.733137 0.825793
vt 0.733137 0.736538
vt 0.763031 0.736538
vt 0.763031 0.825793
vt 0.545847 0.239279
vt 0.456591 0.321329
vt 0.988097 0.665707
vt 0.988096 0.947441
vt 0.965951 0.947485
vt 0.965951 0.665751
vt 0.015796 0.559340
vt 0.011610 0.425158
vt 0.105008 0.347856
vt 0.105008 0.556556
vt 0.531727 0.809893
vt 0.531727 0.861126
vt 0.526996 0.882760
vt 0.506253 0.842911
vt 0.433371 0.293344
vt 0.303553 0.293344
vt 0.303551 0.011610
vt 0.433371 0.011610
vt 0.385670 0.822729
vt 0.385670 0.911985
vt 0.354375 0.911985
vt 0.354375 0.782165
vt 0.011610 0.011610
vt 0.127293 0.089636
vt 0.127293 0.324636
vt 0.011610 0.238560
vt 0.779440 0.572215
vt 0.724000 0.572215
vt 0.733137 0.867496
vt 0.763031 0.867496
vt 0.763031 0.922936
vt 0.733137 0.922936
vt 0.648195 0.011610
vt 0.719910 0.011610
vt 0.011610 0.715899
vt 0.027190 0.582559
vt 0.068611 0.587399
vt 0.068611 0.759417
vt 0.271063 0.316614
vt 0.271063 0.434114
vt 0.271063 0.614085
vt 0.241169 0.614552
vt 0.241169 0.316614
vt 0.619720 0.507306
vt 0.664644 0.507306
vt 0.664644 0.562746
vt 0.619720 0.562746
vt 0.802659 0.852026
vt 0.802660 0.680008
vt 0.858099 0.680008
vt 0.858099 0.852026
vt 0.569071 0.293345
vt 0.569067 0.011610
vt 0.624511 0.011610
vt 0.624511 0.293345
vt 0.429855 0.316564
vt 0.429855 0.623366
vt 0.418235 0.618410
vt 0.424425 0.328357
vt 0.584840 0.870565
vt 0.554946 0.871033
vt 0.554946 0.858048
vt 0.584840 0.858048
vt 0.835760 0.345372
vt 0.812143 0.623059
vt 0.802659 0.625332
vt 0.825742 0.344549
vt 0.700780 0.344549
vt 0.700780 0.484086
vt 0.551575 0.445184
vt 0.331155 0.782165
vt 0.331155 0.921702
vt 0.281020 0.921702
vt 0.281020 0.782165
vt 0.184445 0.782165
vt 0.184445 0.936357
vt 0.134309 0.936357
vt 0.134309 0.782165
vt 0.709917 0.736538
vt 0.709917 0.916509
vt 0.659782 0.916509
vt 0.659781 0.736538
vt 0.841763 0.011610
vt 0.841763 0.309549
vt 0.816485 0.290301
vt 0.817272 0.011610
vt 0.586718 0.834828
vt 0.554946 0.834828
vt 0.554946 0.809893
vt 0.586718 0.809893
vt 0.938416 0.011610
vt 0.938416 0.309548
vt 0.913480 0.309548
vt 0.913480 0.011610
vt 0.961635 0.290301
vt 0.961636 0.011610
vt 0.986571 0.011610
vt 0.986571 0.290301
vt 0.835760 0.644313
vt 0.834734 0.656788
vt 0.891054 0.344549
vt 0.892080 0.357024
vt 0.648718 0.634658
vt 0.648718 0.604764
vt 0.456591 0.093660
vt 0.456592 0.207494
vt 0.915300 0.665707
vt 0.920586 0.947473
vt 0.942731 0.947518
vt 0.942731 0.665785
vt 0.395016 0.603887
vt 0.395016 0.316564
vt 0.483033 0.883051
vt 0.483033 0.836169
vt 0.475155 0.809893
vt 0.456591 0.850802
vt 0.150513 0.011610
vt 0.154823 0.293394
vt 0.011610 0.818889
vt 0.041336 0.782637
vt 0.779440 0.458382
vt 0.779440 0.344549
vt 0.724000 0.344549
vt 0.724000 0.458382
vt 0.607015 0.634658
vt 0.607015 0.604764
vt 0.551575 0.604764
vt 0.551575 0.634658
vt 0.647731 0.125444
vt 0.648195 0.239277
vt 0.719910 0.239277
vt 0.719909 0.125444
vt 0.150513 0.341014
vt 0.176415 0.627167
vt 0.217949 0.623407
vt 0.217949 0.316614
vt 0.891005 0.680008
vt 0.882328 0.689188
vt 0.881319 0.843378
vt 0.891005 0.852027
vt 0.432248 0.729051
vt 0.314748 0.729051
vt 0.134777 0.729051
vt 0.134309 0.758945
vt 0.432248 0.758945
vt 0.596500 0.507306
vt 0.551575 0.507306
vt 0.551575 0.562746
vt 0.596500 0.562746
vt 0.456591 0.713318
vt 0.763384 0.713318
vt 0.763384 0.657878
vt 0.456591 0.657878
vt 0.432247 0.650391
vt 0.150513 0.650387
vt 0.150513 0.705831
vt 0.432247 0.705831
vt 0.104458 0.582559
vt 0.091831 0.582917
vt 0.091831 0.809867
vt 0.104458 0.810225
vt 0.104458 0.833912
vt 0.074564 0.833445
vt 0.074564 0.846430
vt 0.104458 0.846430
vt 0.892080 0.655962
vt 0.868463 0.378278
vt 0.858980 0.376005
vt 0.882061 0.656785
vt 0.456591 0.509592
vt 0.528356 0.634658
vt 0.528356 0.344549
vt 0.207665 0.782165
vt 0.207664 0.926358
vt 0.257800 0.926358
vt 0.257800 0.782165
vt 0.793265 0.301720
vt 0.793265 0.011610
vt 0.743130 0.011610
vt 0.743129 0.301719
vt 0.636562 0.736538
vt 0.456591 0.736538
vt 0.456591 0.786673
vt 0.636562 0.786673
vt 0.890261 0.309548
vt 0.890261 0.011610
vt 0.864983 0.030857
vt 0.865769 0.309548
vt 0.647731 0.262497
vt 0.647731 0.294268
vt 0.672666 0.294268
vt 0.672666 0.262497
vt 0.940235 0.642487
vt 0.940235 0.344549
vt 0.915300 0.344549
vt 0.915300 0.642487
vt 0.963455 0.344549
vt 0.963455 0.623240
vt 0.988390 0.623240
vt 0.988390 0.344549
vt 0.733137 0.825793
vt 0.763031 0.825793
vt 0.456591 0.321329
vt 0.988097 0.665707
vt 0.965951 0.665751
vt 0.965951 0.947485
vt 0.988096 0.947441
vt 0.015796 0.559340
vt 0.011610 0.425158
vt 0.531727 0.809893
vt 0.506253 0.842911
vt 0.526996 0.882760
vt 0.531727 0.861126
vt 0.303551 0.011610
vt 0.303553 0.293344
vt 0.385670 0.822729
vt 0.354375 0.782165
vt 0.011610 0.011610
vt 0.011610 0.238560
vt 0.127293 0.324636
vt 0.127293 0.089636
vt 0.724000 0.572215
vt 0.779440 0.572215
vt 0.733137 0.867496
vt 0.733137 0.922936
vt 0.763031 0.922936
vt 0.763031 0.867496
vt 0.719910 0.011610
vt 0.648195 0.011610
vt 0.011610 0.715899
vt 0.068611 0.759417
vt 0.068611 0.587399
vt 0.027190 0.582559
vt 0.271063 0.316614
vt 0.241169 0.316614
vt 0.241169 0.614552
vt 0.271063 0.614085
vt 0.271063 0.434114
vt 0.619720 0.507306
vt 0.619720 0.562746
vt 0.664644 0.562746
vt 0.664644 0.507306
vt 0.802659 0.852026
vt 0.858099 0.852026
vt 0.858099 0.680008
vt 0.802660 0.680008
vt 0.569071 0.293345
vt 0.624511 0.293345
vt 0.624511 0.011610
vt 0.569067 0.011610
vt 0.429855 0.316564
vt 0.424425 0.328357
vt 0.418235 0.618410
vt 0.429855 0.623366
vt 0.584840 0.870565
vt 0.584840 0.858048
vt 0.554946 0.858048
vt 0.554946 0.871033
vt 0.835760 0.345372
vt 0.825742 0.344549
vt 0.802659 0.625332
vt 0.812143 0.623059
vt 0.700780 0.344549
vt 0.551575 0.445184
vt 0.700780 0.484086
vt 0.331155 0.782165
vt 0.281020 0.782165
vt 0.281020 0.921702
vt 0.331155 0.921702
vt 0.184445 0.782165
vt 0.134309 0.782165
vt 0.134309 0.936357
vt 0.184445 0.936357
vt 0.709917 0.736538
vt 0.659781 0.736538
vt 0.659782 0.916509
vt 0.709917 0.916509
vt 0.841763 0.011610
vt 0.817272 0.011610
vt 0.816485 0.290301
vt 0.841763 0.309549
vt 0.586718 0.834828
vt 0.586718 0.809893
vt 0.554946 0.809893
vt 0.554946 0.834828
vt 0.938416 0.011610
vt 0.913480 0.011610
vt 0.913480 0.309548
vt 0.938416 0.309548
vt 0.961635 0.290301
vt 0.986571 0.290301
vt 0.986571 0.011610
vt 0.961636 0.011610
vt 0.834734 0.656788
vt 0.835760 0.644313
vt 0.892080 0.357024
vt 0.891054 0.344549
vn -1.0000 0.0000 0.0000
vn 0.0024 1.0000 0.0000
vn -0.0024 1.0000 -0.0022
vn 0.0050 1.0000 0.0046
vn 0.0050 1.0000 0.0000
vn 0.0062 -0.1333 0.9911
vn 0.0031 -0.0924 0.9957
vn 0.0032 -0.0927 0.9957
vn -0.2801 0.9513 -0.1287
vn -0.3096 -0.8260 0.4710
vn -0.0085 -1.0000 -0.0000
vn -0.0189 -0.9998 -0.0000
vn -0.0084 -1.0000 0.0000
vn -0.2576 -0.9662 0.0000
vn 0.0000 1.0000 0.0000
vn 0.0000 0.5797 0.8149
vn 0.0014 0.5797 0.8149
vn -0.2799 0.7867 0.5503
vn 0.0000 0.0000 -1.0000
vn -0.7689 -0.6393 -0.0000
vn -0.4182 0.9083 0.0000
vn -0.0010 -1.0000 -0.0051
vn -0.0000 -1.0000 -0.0051
vn -0.8023 0.5969 0.0000
vn 0.3988 -0.9171 -0.0000
vn 0.7956 0.6058 0.0000
vn 0.0000 -1.0000 -0.0000
vn -0.0028 1.0000 0.0000
vn 1.0000 0.0000 0.0000
vn -0.0050 1.0000 0.0000
vn -0.0050 1.0000 -0.0046
vn 0.0001 -0.0514 0.9987
vn 0.4030 0.8962 0.1852
vn 0.3735 -0.8243 0.4255
vn 0.0020 -1.0000 -0.0000
vn 0.3971 -0.9178 0.0000
vn -0.0014 0.5797 0.8149
vn 0.5784 0.6684 0.4676
vn 0.7689 -0.6393 -0.0000
vn 0.7459 0.6660 0.0000
vn 0.0010 -1.0000 -0.0051
vn 0.8290 -0.5592 -0.0000
vn -0.7503 -0.6612 -0.0000
vn -0.7956 0.6058 0.0000
vn 0.0028 1.0000 0.0000
vn 0.0050 1.0000 -0.0046
vn -0.0024 1.0000 0.0022
vn 0.0062 -0.1333 -0.9911
vn 0.0032 -0.0927 -0.9957
vn 0.0031 -0.0924 -0.9957
vn -0.2801 0.9513 0.1287
vn -0.3096 -0.8260 -0.4710
vn 0.0000 0.5797 -0.8149
vn 0.0014 0.5797 -0.8149
vn -0.2799 0.7867 -0.5503
vn 0.0000 0.0000 1.0000
vn -0.0010 -1.0000 0.0051
vn -0.0000 -1.0000 0.0051
vn -0.0050 1.0000 0.0046
vn 0.0001 -0.0514 -0.9987
vn 0.4030 0.8962 -0.1852
vn 0.3735 -0.8243 -0.4255
vn -0.0014 0.5797 -0.8149
vn 0.5784 0.6684 -0.4676
vn 0.0010 -1.0000 0.0051
usemtl Material
s 1
f 1/1/1 2/2/1 112/3/1 111/4/1
f 113/5/2 3/6/3 4/7/4 114/8/5
f 5/9/6 6/10/6 7/11/7 8/12/8
f 1/13/9 111/14/9 114/15/9 4/16/9
f 2/17/10 9/18/10 6/19/10 5/20/10
f 115/21/11 116/22/12 5/23/12 8/24/13
f 2/25/14 5/26/14 116/27/14 112/28/14
f 10/29/15 11/30/15 12/31/15 13/32/15
f 14/33/1 15/34/1 16/35/1 9/36/1
f 3/37/16 10/38/16 13/39/17 4/40/17
f 4/41/18 13/42/18 14/43/18 1/44/18
f 1/1/1 14/33/1 9/36/1 2/2/1
f 17/45/19 18/46/19 19/47/19 20/48/19
f 21/49/19 22/50/19 23/51/19 24/52/19 25/53/19
f 9/54/20 16/55/20 26/56/20 6/57/20
f 13/58/21 12/59/21 15/60/21 14/61/21
f 6/62/22 26/63/22 27/64/23 7/65/23
f 12/66/19 17/67/19 20/68/19 28/69/19
f 23/70/19 16/71/19 15/72/19 24/73/19
f 29/74/19 27/75/19 26/76/19 30/77/19
f 31/78/19 32/79/19 33/80/19
f 25/81/24 31/82/24 33/83/24 28/84/24
f 28/85/25 33/86/25 32/87/25 24/88/25
f 24/89/15 32/90/15 31/91/15 25/92/15
f 34/93/19 35/94/19 36/95/19 37/96/19
f 23/97/26 37/98/26 36/99/26 30/100/26
f 22/101/27 34/102/27 37/103/27 23/104/27
f 30/105/28 36/106/28 35/107/15 29/108/15
f 38/109/29 118/110/29 117/111/29 39/112/29
f 113/5/2 119/113/30 40/114/31 3/6/3
f 41/115/32 8/116/8 7/117/7 42/118/32
f 38/119/33 40/120/33 119/121/33 118/122/33
f 39/123/34 41/124/34 42/125/34 43/126/34
f 115/127/11 8/128/13 41/129/35 120/130/35
f 39/131/36 117/132/36 120/133/36 41/134/36
f 20/135/19 44/136/19 25/137/19 28/138/19
f 10/29/15 45/139/15 17/140/15 11/30/15
f 46/141/29 43/142/29 47/143/29 18/144/29
f 3/37/16 40/145/37 45/146/37 10/38/16
f 40/147/38 38/148/38 46/149/38 45/150/38
f 38/109/29 39/112/29 43/142/29 46/141/29
f 21/151/19 44/152/19 19/153/19 48/154/19 22/155/19
f 43/156/39 42/157/39 49/158/39 47/159/39
f 45/160/40 46/161/40 18/162/40 17/163/40
f 42/164/41 7/165/23 27/166/23 49/167/41
f 15/168/19 12/169/19 28/170/19 24/171/19
f 48/172/19 19/173/19 18/174/19 47/175/19
f 29/176/19 50/177/19 49/178/19 27/179/19
f 51/180/19 52/181/19 53/182/19
f 44/183/42 20/184/42 52/185/42 51/186/42
f 20/187/43 19/188/43 53/189/43 52/190/43
f 19/191/15 44/192/15 51/193/15 53/194/15
f 34/195/19 54/196/19 55/197/19 35/198/19
f 48/199/44 50/200/44 55/201/44 54/202/44
f 22/203/27 48/204/27 54/205/27 34/206/27
f 50/207/45 29/208/15 35/209/15 55/210/45
f 49/178/19 50/177/19 48/211/19 47/212/19
f 30/77/19 26/76/19 16/213/19 23/214/19
f 56/215/1 111/4/1 112/3/1 57/216/1
f 113/5/2 114/8/5 59/217/46 58/218/47
f 60/219/48 63/220/49 62/221/50 61/222/48
f 56/223/51 59/224/51 114/15/51 111/14/51
f 57/225/52 60/226/52 61/227/52 64/228/52
f 115/21/11 63/229/13 60/230/12 116/22/12
f 57/231/14 112/28/14 116/27/14 60/232/14
f 65/233/15 68/234/15 67/235/15 66/236/15
f 69/237/1 64/238/1 71/239/1 70/240/1
f 58/241/53 59/242/54 68/243/54 65/244/53
f 59/245/55 56/246/55 69/247/55 68/248/55
f 56/215/1 57/216/1 64/238/1 69/237/1
f 72/249/56 75/250/56 74/251/56 73/252/56
f 76/253/56 80/254/56 79/255/56 78/256/56 77/257/56
f 64/258/20 61/259/20 81/260/20 71/261/20
f 68/262/21 69/263/21 70/264/21 67/265/21
f 61/266/57 62/267/58 82/268/58 81/269/57
f 67/270/56 83/271/56 75/272/56 72/273/56
f 78/274/56 79/275/56 70/276/56 71/277/56
f 84/278/56 85/279/56 81/280/56 82/281/56
f 86/282/56 88/283/56 87/284/56
f 80/285/24 83/286/24 88/287/24 86/288/24
f 83/289/25 79/290/25 87/291/25 88/292/25
f 79/293/15 80/294/15 86/295/15 87/296/15
f 89/297/56 92/298/56 91/299/56 90/300/56
f 78/301/26 85/302/26 91/303/26 92/304/26
f 77/305/27 78/306/27 92/307/27 89/308/27
f 85/309/28 84/310/15 90/311/15 91/312/28
f 93/313/29 94/314/29 117/111/29 118/110/29
f 113/5/2 58/218/47 95/315/59 119/113/30
f 96/316/60 97/317/60 62/318/50 63/319/49
f 93/320/61 118/122/61 119/121/61 95/321/61
f 94/322/62 98/323/62 97/324/62 96/325/62
f 115/127/11 120/130/35 96/326/35 63/327/13
f 94/328/36 96/329/36 120/133/36 117/132/36
f 75/330/56 83/331/56 80/332/56 99/333/56
f 65/233/15 66/236/15 72/334/15 100/335/15
f 101/336/29 73/337/29 102/338/29 98/339/29
f 58/241/53 65/244/53 100/340/63 95/341/63
f 95/342/64 100/343/64 101/344/64 93/345/64
f 93/313/29 101/336/29 98/339/29 94/314/29
f 76/346/56 77/347/56 103/348/56 74/349/56 99/350/56
f 98/351/39 102/352/39 104/353/39 97/354/39
f 100/355/40 72/356/40 73/357/40 101/358/40
f 97/359/65 104/360/65 82/361/58 62/362/58
f 70/363/56 79/364/56 83/365/56 67/366/56
f 103/367/56 102/368/56 73/369/56 74/370/56
f 84/371/56 82/372/56 104/373/56 105/374/56
f 106/375/56 108/376/56 107/377/56
f 99/378/42 106/379/42 107/380/42 75/381/42
f 75/382/43 107/383/43 108/384/43 74/385/43
f 74/386/15 108/387/15 106/388/15 99/389/15
f 89/390/56 90/391/56 110/392/56 109/393/56
f 103/394/44 109/395/44 110/396/44 105/397/44
f 77/398/27 89/399/27 109/400/27 103/401/27
f 105/402/45 110/403/45 90/404/15 84/405/15
f 104/373/56 102/406/56 103/407/56 105/374/56
f 85/279/56 78/408/56 71/409/56 81/280/56
