# Blender v3.0.1 OBJ File: 'wall.blend'
# www.blender.org
mtllib wall_tile.mtl
o FlatTile_Plane
v -5.000000 0.000000 5.000000
v 5.000000 0.000000 5.000000
v -5.000000 0.000000 -5.000000
v 5.000000 0.000000 -5.000000
v -0.414792 0.007600 5.003504
v -0.414792 2.007600 5.003504
v -0.414792 0.007600 -5.003504
v -0.414792 2.007600 -5.003504
v 0.414792 0.007600 5.003504
v 0.414792 2.007600 5.003504
v 0.414792 0.007600 -5.003504
v 0.414792 2.007600 -5.003504
vt 0.000136 0.000136
vt 0.499689 0.000136
vt 0.499689 0.499689
vt 0.000136 0.499689
vt 0.500039 0.499961
vt 0.500039 0.599872
vt 0.000136 0.599872
vt 0.000136 0.499961
vt 0.499961 0.200230
vt 0.499961 0.100319
vt 0.541403 0.100319
vt 0.541403 0.200230
vt 0.500311 0.499961
vt 0.600222 0.499961
vt 0.600222 0.999864
vt 0.500311 0.999864
vt 0.499961 0.100047
vt 0.499961 0.000136
vt 0.541403 0.000136
vt 0.541403 0.100047
vt 0.000136 0.641586
vt 0.000136 0.600144
vt 0.500039 0.600144
vt 0.500039 0.641587
vt 0.000136 0.683301
vt 0.000136 0.641859
vt 0.500039 0.641859
vt 0.500039 0.683301
vn 0.0000 1.0000 0.0000
vn -1.0000 0.0000 0.0000
vn 0.0000 0.0000 -1.0000
vn 1.0000 0.0000 0.0000
vn 0.0000 0.0000 1.0000
vn 0.0000 -1.0000 0.0000
usemtl Material.003
s off
f 1/1/1 2/2/1 4/3/1 3/4/1
f 5/5/2 6/6/2 8/7/2 7/8/2
f 7/9/3 8/10/3 12/11/3 11/12/3
f 11/13/4 12/14/4 10/15/4 9/16/4
f 9/17/5 10/18/5 6/19/5 5/20/5
f 7/21/6 11/22/6 9/23/6 5/24/6
f 12/25/1 8/26/1 6/27/1 10/28/1
